<?xml version="1.0" standalone="no"?><!DOCTYPE svg PUBLIC "-//W3C//DTD SVG 1.1//EN" "http://www.w3.org/Graphics/SVG/1.1/DTD/svg11.dtd"><svg t="1567502549492" class="icon" viewBox="0 0 1024 1024" version="1.1" xmlns="http://www.w3.org/2000/svg" p-id="4126" xmlns:xlink="http://www.w3.org/1999/xlink" width="200" height="200"><defs><style type="text/css"></style></defs><path d="M429.568 697.856c6.144 1.536 11.776 2.048 17.92 2.56l16.384-5.12L285.184 558.08c41.472 79.872 89.6 126.976 144.384 139.776z" fill="#8666b8" p-id="4127"></path><path d="M512 11.264C235.52 11.264 11.776 235.52 11.776 512S235.52 1012.224 512 1012.224s500.736-224.256 500.736-500.736S788.48 11.264 512 11.264z m-5.12 232.448c9.728-3.072 19.968 2.56 23.04 12.288l-34.816 10.752c-3.584-9.728 2.048-19.968 11.776-23.04z m73.216 512c5.12 4.096 6.144 11.264 2.048 16.384-2.048 3.072-5.632 4.608-9.216 4.608-2.56 0-5.12-1.024-7.168-2.56l-61.44-47.616c-13.312 3.584-28.16 5.632-44.032 5.632-9.728 0-19.456-1.024-29.184-2.56l-154.624 46.08c-1.024 0.512-2.048 0.512-3.584 0.512-5.12 0-9.728-3.584-11.264-8.192-2.048-6.144 1.536-12.8 7.68-14.848l121.856-36.352c-61.952-28.16-114.688-94.208-157.696-197.632-1.024-2.048-1.024-4.096-1.024-6.144-1.024-3.584-0.512-7.68 2.048-10.752 2.56-3.072 6.144-4.608 10.24-4.608 7.168-2.048 15.36 2.048 17.92 9.216 0.512 1.024 1.024 2.56 1.536 3.584L491.52 687.616l65.536-19.456c3.584-2.56 5.632-4.096 5.632-4.096 6.656-5.632 16.384-5.12 22.016 1.536 5.632 6.656 5.12 16.384-1.536 22.016-1.536 1.536-20.992 17.92-52.224 30.72l49.152 37.376z m91.136 24.576c-1.536 0.512-3.072 0.512-4.608 0.512-6.656 0-12.8-4.096-14.848-11.264l-97.792-318.464a15.54944 15.54944 0 0 1 29.696-9.216l97.792 318.464c2.56 8.704-2.048 17.408-10.24 19.968z m119.808-448.512c-5.632 13.824-24.576 20.48-57.856 20.48-7.168 0-15.36-0.512-24.064-1.024-0.512 0-1.024 0.512-1.536 0.512-1.024 0-2.56-0.512-3.072-1.536-13.312-17.92-32.768-28.672-58.368-33.792 12.288 10.752 33.28 30.208 46.08 48.64 1.024 1.536 1.024 3.584-0.512 5.12-18.944 17.92-42.496 36.352-73.216 36.352-16.384 0-33.792-5.632-51.2-16.384-0.512-0.512-1.024-0.512-1.536-1.536l-30.208-50.688 2.56 62.464c0 0.512 0 1.024-0.512 1.536-15.872 35.84-40.96 53.76-77.312 53.76-12.8 0-25.6-2.048-35.84-3.584-2.048-0.512-3.072-2.048-3.072-4.096 0-22.528 6.656-50.176 10.752-66.048-18.432 18.432-28.672 38.4-29.696 60.416 0 1.024-0.512 2.048-1.536 3.072-0.512 0.512-1.024 0.512-2.048 1.024-28.16 22.528-49.664 33.28-65.024 33.28-7.68 0-13.824-2.56-17.92-7.68-11.264-13.312-6.656-38.912-6.656-39.936 11.264-47.104 71.68-116.736 202.752-157.184l3.584-1.024c1.024-0.512 2.048-0.512 3.072-1.024 46.08-14.336 90.112-21.504 130.048-21.504 53.76 0 99.84 13.824 125.952 37.376 1.536 0.512 24.064 24.064 16.384 43.008z" fill="#8666b8" p-id="4128"></path></svg>