<?xml version="1.0" standalone="no"?><!DOCTYPE svg PUBLIC "-//W3C//DTD SVG 1.1//EN" "http://www.w3.org/Graphics/SVG/1.1/DTD/svg11.dtd"><svg t="1567502404675" class="icon" viewBox="0 0 1024 1024" version="1.1" xmlns="http://www.w3.org/2000/svg" p-id="1864" xmlns:xlink="http://www.w3.org/1999/xlink" width="200" height="200"><defs><style type="text/css"></style></defs><path d="M594.112 277.3888c-16.5376 0-39.68 36.672-46.9248 93.8496-7.232 57.1776-7.872 93.8496 46.9248 93.8496 54.8096 0 53.9648-38.3488 46.9248-93.8496-7.04-55.5136-30.3744-93.8496-46.9248-93.8496z" fill="#FFC400" p-id="1865"></path><path d="M512 10.048C234.7776 10.048 10.0352 234.7776 10.0352 512 10.0352 789.2096 234.7776 1013.952 512 1013.952S1013.9648 789.2096 1013.9648 512C1013.9648 234.7776 789.2224 10.048 512 10.048z m-93.8496 243.8784h23.4624v164.2368h-23.4624V253.9264z m82.112 175.9616l-58.6496 58.6496s5.8624 67.3664 5.8624 129.0496c0 61.6704-5.8624 152.4992-5.8624 152.4992h-23.4624s-5.8624-90.3552-5.8624-152.4992 5.8624-129.0496 5.8624-129.0496l-58.6496-58.6496V289.1136l23.5136-35.2V418.432l46.8736 44.7232 46.9248-44.7232V253.9136l23.4496 35.2v140.7744z m105.5872 59.4048s5.8624 67.5968 5.8624 128.6912c0 61.1072-5.8624 152.1152-5.8624 152.1152h-23.4624s-5.8624-93.5936-5.8624-152.1152c0-58.4832 5.8624-128.6912 5.8624-128.6912s-58.6496-14.6304-58.6496-61.4272c0-23.3984 11.7248-173.9392 70.3744-173.9392 58.6624 0 70.3872 150.5408 70.3872 173.9392 0 46.7968-58.6496 61.4272-58.6496 61.4272z" fill="#FFC400" p-id="1866"></path></svg>