<?xml version="1.0" standalone="no"?><!DOCTYPE svg PUBLIC "-//W3C//DTD SVG 1.1//EN" "http://www.w3.org/Graphics/SVG/1.1/DTD/svg11.dtd"><svg t="1567502856134" class="icon" viewBox="0 0 1024 1024" version="1.1" xmlns="http://www.w3.org/2000/svg" p-id="1985" xmlns:xlink="http://www.w3.org/1999/xlink" width="200" height="200"><defs><style type="text/css"></style></defs><path d="M543.3344 356.693333l175.991467 139.5712 31.1296-36.4544-176.0256-139.5712L543.3344 356.693333zM560.264533 410.897067l-20.514133 24.4736 100.317867 79.5648-20.753067 24.337067-100.078933-79.36-20.514133 24.507733 99.84 79.1552-20.753067 24.302933-99.566933-78.9504-158.037333 188.859733 100.5568 79.735467 30.754133-36.727467-100.181333-79.4624 20.718933-24.337067 99.976533 79.291733 188.791467-225.621333-30.754133-24.3712L560.264533 410.897067zM512 0C229.239467 0 0 229.239467 0 512s229.239467 512 512 512 512-229.239467 512-512S794.760533 0 512 0zM190.1568 504.285867c-8.123733 3.754667-17.851733 0.443733-21.7088-7.406933-3.857067-7.816533-0.4096-17.2032 7.714133-20.957867 32.4608-14.984533 46.318933-52.6336 30.856533-83.899733-3.857067-7.816533-0.4096-17.2032 7.714133-20.957867s17.851733-0.443733 21.7088 7.3728c15.4624 31.266133 54.442667 44.475733 86.903467 29.4912 8.123733-3.754667 17.851733-0.443733 21.7088 7.3728 3.857067 7.816533 0.4096 17.237333-7.714133 20.992-32.4608 14.984533-46.318933 52.6336-30.890667 83.8656 3.857067 7.816533 0.4096 17.237333-7.714133 20.992-8.123733 3.754667-17.851733 0.443733-21.742933-7.406933C261.632 502.510933 222.6176 489.301333 190.1568 504.285867zM735.095467 304.913067c-34.679467-27.477333-86.084267-22.562133-114.722133 10.9568l175.957333 139.502933-72.635733 85.128533-37.512533-29.764267-261.051733 311.022933-37.717333-29.9008-38.365867 41.813333-12.5952-9.966933L326.485333 815.786667 323.8912 813.738667l-37.717333-29.934933-12.561067-9.966933 38.4-41.7792 25.156267 19.933867-16.725333 18.193067 25.122133 19.933867 16.6912-18.2272L274.295467 702.122667l261.051733-310.9888-37.922133-30.071467 72.635733-85.0944 25.122133 19.933867c40.072533-46.933333 112.128-53.76 160.631467-15.291733 48.5376 38.468267 55.432533 107.9296 15.36 154.862933l-25.122133-19.933867C774.656 382.020267 769.774933 332.3904 735.095467 304.913067zM244.906667 432.093867c-1.8432 12.561067-6.314667 24.644267-13.073067 35.566933 13.038933 1.7408 25.565867 6.007467 36.829867 12.4928 1.8432-12.561067 6.314667-24.644267 13.073067-35.566933C268.6976 442.845867 256.170667 438.613333 244.906667 432.093867z" fill="#d4237a" p-id="1986"></path></svg>