<?xml version="1.0" standalone="no"?><!DOCTYPE svg PUBLIC "-//W3C//DTD SVG 1.1//EN" "http://www.w3.org/Graphics/SVG/1.1/DTD/svg11.dtd"><svg t="1567511760887" class="icon" viewBox="0 0 1024 1024" version="1.1" xmlns="http://www.w3.org/2000/svg" p-id="5259" xmlns:xlink="http://www.w3.org/1999/xlink" width="200" height="200"><defs><style type="text/css"></style></defs><path d="M512 1024C229.229714 1024 0 794.770286 0 512S229.229714 0 512 0s512 229.229714 512 512-229.229714 512-512 512z m-0.073143-780.190476C364.080762 243.809524 243.809524 352.060952 243.809524 485.180952v26.745905h536.234666v-26.867809c0-132.998095-120.246857-241.249524-268.117333-241.249524zM243.809524 699.684571A80.554667 80.554667 0 0 0 324.169143 780.190476h375.369143a80.579048 80.579048 0 0 0 80.505904-80.505905v-80.505904H243.809524v80.505904zM753.298286 538.819048H270.701714a26.843429 26.843429 0 1 0 0 53.76h482.596572c14.872381 0 26.89219-12.01981 26.89219-26.892191a26.940952 26.940952 0 0 0-26.89219-26.867809z m-375.491048-107.276191a26.843429 26.843429 0 1 1 0-53.76c14.872381 0 26.86781 12.01981 26.86781 26.892191s-11.995429 26.89219-26.86781 26.89219z m134.119619-80.481524c-14.872381 0-26.86781-12.01981-26.867809-26.89219s11.995429-26.86781 26.867809-26.86781c14.872381 0 26.89219 11.995429 26.892191 26.86781a26.940952 26.940952 0 0 1-26.892191 26.89219z m133.997714 80.505905c-14.872381 0-26.89219-12.01981-26.89219-26.89219s12.01981-26.86781 26.89219-26.86781 26.86781 11.995429 26.86781 26.86781c0 14.872381-11.995429 26.89219-26.86781 26.89219z" fill="#f4ea2a" p-id="5260"></path></svg>