<?xml version="1.0" standalone="no"?><!DOCTYPE svg PUBLIC "-//W3C//DTD SVG 1.1//EN" "http://www.w3.org/Graphics/SVG/1.1/DTD/svg11.dtd"><svg t="1567511845382" class="icon" viewBox="0 0 1024 1024" version="1.1" xmlns="http://www.w3.org/2000/svg" p-id="6067" xmlns:xlink="http://www.w3.org/1999/xlink" width="200" height="200"><defs><style type="text/css"></style></defs><path d="M512 0C229.228089 0 0 229.216711 0 512s229.228089 512 512 512c282.783289 0 512-229.216711 512-512S794.783289 0 512 0z m153.861689 569.685333c9.898667-15.1552 28.273778-23.210667 46.637511-18.716444 21.128533 5.131378 34.9184 25.053867 33.553067 46.3872a44.350578 44.350578 0 0 0-31.1296-28.603733c-18.170311-4.380444-36.386133 3.492978-46.341689 18.352355a54.636089 54.636089 0 0 1 45.147022 1.911467c24.826311 12.515556 36.4544 41.221689 28.763022 67.367822-2.139022-18.511644-13.095822-35.612444-30.731378-44.509867a54.738489 54.738489 0 0 0-35.931022-4.687644c0.523378 1.399467 0.841956 2.855822 0.841956 4.425955 0 4.994844-2.787556 9.238756-6.849422 11.423289 0.420978 1.467733 0.694044 3.049244 0.694044 4.619378 0 9.124978-7.213511 16.463644-16.122311 16.463645a16.042667 16.042667 0 0 1-14.597689-9.477689c-0.512 1.046756-1.001244 2.104889-1.479111 3.151644l-14.916267-10.160355a9.045333 9.045333 0 0 0 0.7168-1.570134 49.493333 49.493333 0 0 0 2.412089-5.984711 12.367644 12.367644 0 0 1-6.212267 1.7408 12.811378 12.811378 0 0 1-12.663466-12.947911c0-7.156622 5.666133-12.936533 12.663466-12.936533 3.538489 0 6.724267 1.479111 8.999823 3.857066-1.342578-18.875733-13.630578-35.828622-32.779378-45.351822a54.897778 54.897778 0 0 0-53.3504 2.446222c15.598933-22.163911 45.021867-30.4128 69.882311-18.011022a56.536178 56.536178 0 0 1 28.956444 34.747733c0.079644-10.9568-2.889956-20.514133-11.150222-29.411555a50.9952 50.9952 0 0 0-4.096-4.050489 55.068444 55.068444 0 0 0-52.246755-11.411911 54.863644 54.863644 0 0 1 72.032711 0.659911 57.207467 57.207467 0 0 1 19.296711 40.277333z m-37.7856 127.6928l-28.683378-19.6608c1.831822-5.040356 3.800178-10.057956 5.950578-14.9504l26.544355-5.336177c-2.730667 11.389156-4.243911 24.564622-3.811555 39.947377z m1.627022 19.694934l-44.305067 8.874666a398.5408 398.5408 0 0 1 12.549689-44.225422l30.355911 20.821333c0.273067 4.642133 0.750933 9.489067 1.399467 14.529423z m-22.3232-58.9824a197.859556 197.859556 0 0 1 13.835378-25.486223c0.125156-0.159289 0.295822-0.591644 0.580267-1.171911l15.007288 10.274134a113.777778 113.777778 0 0 0-3.845688 11.229866l-25.577245 5.154134zM201.341156 496.787911c-16.543289-56.388267 8.544711-118.317511 62.020266-145.260089a117.828267 117.828267 0 0 1 97.314134-4.096c-21.469867-32.062578-60.7232-49.026844-99.953778-39.469511-32.3584 7.873422-56.740978 31.880533-67.083378 61.633422-3.015111-46.057244 26.771911-88.974222 72.260267-100.0448 39.571911-9.671111 79.166578 7.702756 100.522666 40.334223 1.661156-32.347022 15.701333-64.011378 41.710934-86.778312a118.590578 118.590578 0 0 1 155.318044-1.410844 118.442667 118.442667 0 0 0-112.560355 24.644267 133.575111 133.575111 0 0 0-8.920178 8.647111c-17.8176 19.205689-24.177778 39.856356-24.041245 63.510755 9.363911-31.618844 31.015822-59.323733 62.407111-74.911289 53.589333-26.692267 116.986311-8.999822 150.550756 38.820978-33.792-20.753067-76.834133-24.211911-114.938311-5.267911-41.244444 20.514133-67.731911 57.082311-70.667378 97.769245a26.976711 26.976711 0 0 1 19.399111-8.283023c15.075556 0 27.295289 12.4928 27.295289 27.8528 0 15.371378-12.219733 27.864178-27.295289 27.864178a26.624 26.624 0 0 1-13.459911-3.766044c1.456356 4.312178 3.151644 8.590222 5.211022 12.9024 0.216178 0.443733 0.796444 1.7408 1.490489 3.345066l-32.028444 21.993245c-1.035378-2.400711-2.139022-4.642133-3.197156-6.906311-5.540978 12.0832-17.476267 20.502756-31.448178 20.502755-19.228444 0-34.827378-15.940267-34.827377-35.555555 0-3.470222 0.648533-6.781156 1.570133-9.955556a27.921067 27.921067 0 0 1-14.7456-24.632889c0-3.390578 0.682667-6.5536 1.752178-9.545955a117.919289 117.919289 0 0 0-77.4144 10.092089c-38.001778 19.126044-61.633422 56.001422-66.241422 95.971555z m295.697066 13.789867a632.945778 632.945778 0 0 1 12.834134 32.164978l-61.895112 42.427733c0.955733-33.120711-2.343822-61.622044-8.203377-86.072889l57.264355 11.480178z m-59.608178-21.071645a241.208889 241.208889 0 0 0-8.135111-24.257422l32.324267-22.1184c0.557511 1.217422 1.035378 2.173156 1.217422 2.503111 11.081956 17.066667 20.923733 35.601067 29.775645 54.943289l-55.182223-11.070578z m10.0352 106.848711l65.490489-44.896711c11.309511 32.119467 20.195556 64.7168 27.101867 95.323023l-95.550578-19.1488c1.376711-10.831644 2.389333-21.287822 2.958222-31.277512zM546.247111 830.577778c-156.990578 0-284.296533-12.913778-284.296533-28.808534 0-10.672356 57.526044-19.956622 142.734222-24.928711 20.400356-52.747378 32.6656-99.396267 38.661689-140.276622l98.838755 19.808711c2.218667 10.194489 4.175644 20.150044 5.996089 29.741511l-131.4816 90.055111c5.575111-0.273067 11.172978-0.568889 16.930134-0.830577l116.292266-79.712711c5.791289 32.324267 9.250133 59.608178 11.1616 77.403022 5.279289 0.034133 10.638222 0.034133 15.883378 0.113778 0.9216-6.985956 2.139022-15.246222 3.777422-24.541867l36.920889 25.315555 7.588978 0.216178-43.690667-29.934933c0.853333-4.448711 1.763556-9.0112 2.810311-13.767111l45.829689-9.216c2.332444 15.883378 6.792533 33.769244 13.698845 53.543822C752.7424 778.752 830.577778 789.344711 830.577778 801.769244 830.577778 817.664 703.271822 830.577778 546.247111 830.577778z" p-id="6068" fill="#f3ca7e"></path></svg>