<?xml version="1.0" standalone="no"?><!DOCTYPE svg PUBLIC "-//W3C//DTD SVG 1.1//EN" "http://www.w3.org/Graphics/SVG/1.1/DTD/svg11.dtd"><svg t="1567502919903" class="icon" viewBox="0 0 1024 1024" version="1.1" xmlns="http://www.w3.org/2000/svg" p-id="3632" xmlns:xlink="http://www.w3.org/1999/xlink" width="200" height="200"><defs><style type="text/css"></style></defs><path d="M0 512C0 229.239467 229.239467 0 512 0c282.760533 0 512 229.239467 512 512 0 282.760533-229.239467 512-512 512C229.239467 1024 0 794.760533 0 512" fill="#53B78E" p-id="3633"></path><path d="M662.562133 503.210667c1.7408-1.604267 3.498667-3.191467 5.290667-4.727467 30.464-26.2656 64.1024-39.936 105.8816-43.008l7.6288-0.597333-6.656 27.835733v0.034133c-15.223467 62.8224-36.061867 148.872533-43.008 278.016l-0.3072 5.290667h-34.269867l-0.1024-5.461333a1447.287467 1447.287467 0 0 0-6.0928-104.738134c-6.1952-63.829333-16.213333-113.1008-29.7472-146.432l-1.467733-3.584 2.850133-2.628266zM324.061867 610.389333c-12.014933-7.099733-41.352533-31.658667-49.032534-43.3152-4.522667-6.8608-6.280533-12.6976-5.922133-19.5072 0.699733-13.2608 11.6224-24.029867 24.337067-24.029866 13.073067 0 23.927467 15.684267 24.029866 15.8208a11.195733 11.195733 0 0 0 18.500267 0.273066c3.003733-4.164267 13.943467-16.093867 24.234667-16.093866 12.6976 0 23.620267 10.752 24.32 24.029866 0.375467 6.877867-1.348267 12.544-5.922134 19.5072-7.714133 11.7248-36.9152 36.266667-48.8448 43.3152l-2.850133 1.672534-2.850133-1.672534z" fill="#C1E8D0" p-id="3634"></path><path d="M311.330133 604.501333c-12.014933-7.082667-41.352533-31.624533-49.032533-43.298133-4.522667-6.8608-6.280533-12.6976-5.922133-19.5072 0.699733-13.2608 11.639467-24.029867 24.337066-24.029867 13.073067 0 23.927467 15.701333 24.029867 15.837867a11.2128 11.2128 0 0 0 18.500267 0.273067c3.003733-4.181333 13.943467-16.110933 24.234666-16.110934 12.6976 0 23.620267 10.752 24.32 24.029867 0.375467 6.894933-1.348267 12.544-5.922133 19.5072-7.714133 11.7248-36.9152 36.266667-48.8448 43.3152l-2.850133 1.6896-2.850134-1.706667z m460.868267-198.0928c0 8.6016-0.426667 16.247467-1.365333 24.1152l-2.218667 14.421334-4.539733 0.170666c-51.8144 1.962667-91.409067 17.066667-128.392534 48.964267-42.871467 36.9664-81.885867 97.262933-122.7776 189.764267-9.813333 22.152533-17.032533 36.420267-24.183466 47.6672-1.416533 2.218667-2.901333 4.437333-4.437334 6.6048-15.803733 22.084267-35.7376 36.420267-86.357333 39.697066l-3.805867 0.221867a491.4176 491.4176 0 0 1-25.105066 0.6144c-43.178667 0-85.230933-3.2768-118.442667-9.233067-38.058667-6.826667-51.626667-14.5408-56.32-18.568533l-2.030933-1.723733 0.2048-6.826667s0.256-4.573867 0.426666-6.741333c3.498667-47.906133 19.131733-79.2064 46.455467-93.013334 7.441067-3.771733 19.490133-5.461333 39.099733-5.461333 11.3152 0 23.3472 0.580267 35.396267 1.1264 12.458667 0.5632 25.309867 1.160533 37.8368 1.160533 47.889067 0 74.376533-9.608533 85.8624-31.112533l10.837333-20.497067c56.251733-106.5984 104.8576-198.656 287.488-286.6176l4.334934-2.082133 2.730666 3.925333c10.939733 15.957333 29.303467 50.568533 29.303467 103.424z m-127.146667 109.380267c1.706667-1.604267 3.4816-3.1744 5.290667-4.727467 30.429867-26.282667 64.085333-39.936 105.864533-43.025066l7.6288-0.5632-6.656 27.818666v0.034134c-15.240533 62.805333-36.061867 148.8896-43.008 278.016l-0.3072 5.290666H679.594667l-0.119467-5.4784a1424.469333 1424.469333 0 0 0-6.075733-104.704c-6.1952-63.8464-16.213333-113.117867-29.7472-146.449066l-1.467734-3.584 2.850134-2.628267z m106.154667-238.318933a11.434667 11.434667 0 0 0-12.782933-2.389334c-91.0336 42.410667-157.064533 88.32-207.8208 144.5376-45.397333 50.261333-72.925867 102.4-102.109867 157.678934-3.584 6.8096-7.168 13.602133-10.8032 20.411733-8.874667 16.708267-38.229333 19.0464-62.788267 19.234133l-15.445333-0.119466 12.151467-10.0864c11.8784-9.864533 26.794667-23.7568 33.006933-33.211734 4.5056-6.843733 10.410667-17.7152 9.5744-33.024-1.365333-25.378133-21.879467-45.2608-46.728533-45.2608-10.001067 0-19.968 4.027733-29.6448 11.946667l-3.566934 2.952533-3.549866-2.952533c-9.540267-7.918933-19.626667-11.946667-29.986134-11.946667-24.849067 0-45.3632 19.882667-46.711466 45.2608-0.8192 15.1552 4.693333 25.6 9.557333 33.041067 7.0144 10.632533 23.995733 25.463467 30.976 31.351467l11.264 9.506133-14.728533 0.341333c-19.029333 0.494933-32.341333 2.9696-41.864534 7.799467-34.850133 17.6128-54.613333 55.176533-58.743466 111.6672-0.1536 2.0992-0.290133 4.181333-0.375467 6.365867l-0.3072 8.2944c0 18.0224 21.6064 31.2832 66.048 40.533333 36.078933 7.509333 83.387733 11.656533 133.188267 11.656533a431.0528 431.0528 0 0 0 30.344533-0.8704c51.387733-3.328 80.298667-17.083733 103.133867-49.032533 1.809067-2.491733 3.515733-5.034667 5.154133-7.6288 7.765333-12.2368 15.4624-27.357867 25.770667-50.619733 29.047467-65.723733 57.002667-114.517333 85.384533-149.128534l6.485333-7.936 3.157334 9.762134c22.784 70.519467 28.842667 190.600533 28.842666 244.224 0 6.212267 5.000533 11.229867 11.195734 11.229866h56.098133c6.007467 0 10.922667-4.7104 11.195733-10.717866 5.973333-135.970133 27.477333-224.887467 43.298134-290.235734 3.771733-15.633067 7.048533-29.115733 9.728-41.693866l2.730666-14.336 1.553067-10.9568c1.041067-8.704 1.536-17.169067 1.536-26.709334 0-82.944-41.6256-127.095467-43.4176-128.938666z" fill="#424242" p-id="3635"></path><path d="M529.083733 565.589333L529.066667 565.572267a10.871467 10.871467 0 0 0-2.423467-3.618134 11.554133 11.554133 0 0 0-10.0864-3.072 11.912533 11.912533 0 0 0-4.061867 1.672534 11.434667 11.434667 0 0 0-4.983466 9.3184 11.229867 11.229867 0 1 0 21.572266-4.283734M716.526933 350.122667a11.2128 11.2128 0 0 0-7.458133 13.994666c2.321067 7.697067 4.010667 15.872 4.9664 24.234667l0.580267 5.034667-4.949334 1.0752c-66.6624 14.557867-120.4736 53.077333-169.386666 121.1392a11.1616 11.1616 0 0 0 2.56 15.650133 11.144533 11.144533 0 0 0 15.633066-2.577067c49.2032-68.471467 101.495467-103.901867 169.540267-114.858666a11.298133 11.298133 0 0 0 9.4208-11.332267 166.741333 166.741333 0 0 0-6.929067-44.885333 11.383467 11.383467 0 0 0-13.9776-7.4752" fill="#424242" p-id="3636"></path></svg>