<?xml version="1.0" standalone="no"?><!DOCTYPE svg PUBLIC "-//W3C//DTD SVG 1.1//EN" "http://www.w3.org/Graphics/SVG/1.1/DTD/svg11.dtd"><svg t="1567502519936" class="icon" viewBox="0 0 1024 1024" version="1.1" xmlns="http://www.w3.org/2000/svg" p-id="3377" xmlns:xlink="http://www.w3.org/1999/xlink" width="200" height="200"><defs><style type="text/css"></style></defs><path d="M 670.811 527.823 c -11.5604 0 -20.9533 9.28446 -21.2242 20.7726 l 0 0.379326 c 0 0.036126 0 0.036126 0 0.036126 c 0 0.036126 0 0.036126 0 0.036126 l 0 148.353 l 0 0.036126 l 0 0.036126 l 0 0.036126 c 0.072253 11.7049 9.55541 21.1339 21.2242 21.1339 c 11.723 0 21.2242 -9.48315 21.2242 -21.2061 c 0 -0.072253 0 -0.144505 0 -0.216758 l 0 -147.955 c 0 -0.072253 0 -0.144505 0 -0.252884 c 0 -0.072253 0 -0.144505 0 -0.252884 l 0 -0.180632 C 691.764 537.09 682.39 527.823 670.811 527.823 Z" fill="#d81e06" p-id="3378"></path><path d="M 580.893 305.321 l -0.036126 0 l 0 -0.018063 L 359.132 305.303 c -0.415452 -0.018063 -0.830905 -0.054189 -1.26442 -0.054189 c -8.68838 0 -15.733 7.04463 -15.733 15.7511 c 0 0.072253 0 0.162568 0 0.252884 l 0 397.534 l 254.492 0 L 596.626 321.091 c 0 -0.018063 0 -0.036126 0 -0.036126 C 596.608 312.366 589.581 305.321 580.893 305.321 Z M 448.201 563.028 c 0 9.80829 -8.0381 17.8103 -17.8464 17.8103 l -17.3226 0 c -9.79023 0 -17.8103 -8.00198 -17.8103 -17.8103 l 0 -49.0956 c 0 -9.80829 8.02004 -17.8464 17.8103 -17.8464 l 17.3226 0 c 9.80829 0 17.8464 8.0381 17.8464 17.8464 L 448.201 563.028 Z M 448.201 435.792 c 0 9.82635 -8.00198 17.8464 -17.8283 17.8464 l -17.2864 0 c -9.82635 0 -17.8464 -8.02004 -17.8464 -17.8464 L 395.24 386.732 c 0 -9.79023 8.02004 -17.8464 17.8464 -17.8464 l 17.2864 0 c 9.82635 0 17.8283 8.0381 17.8283 17.8464 L 448.201 435.792 Z M 543.538 563.028 c 0 9.80829 -8.02004 17.8103 -17.8464 17.8103 l -17.2864 0 c -9.82635 0 -17.8283 -8.00198 -17.8283 -17.8103 l 0 -49.0956 c 0 -9.80829 8.00198 -17.8464 17.8283 -17.8464 l 17.2864 0 c 9.82635 0 17.8464 8.0381 17.8464 17.8464 L 543.538 563.028 Z M 543.592 435.882 c 0 9.80829 -8.0381 17.8283 -17.8464 17.8283 l -17.3045 0 c -9.80829 0 -17.8464 -8.02004 -17.8464 -17.8283 l 0 -49.0595 c 0 -9.80829 8.0381 -17.8283 17.8464 -17.8283 l 17.3045 0 c 9.80829 0 17.8464 8.02004 17.8464 17.8283 L 543.592 435.882 Z" fill="#d81e06" p-id="3379"></path><path d="M 512.018 6.97238 c -278.931 0 -505.028 226.115 -505.028 505.046 c 0 278.913 226.096 505.028 505.028 505.028 c 278.913 0 505.01 -226.115 505.01 -505.028 C 1017.03 233.069 790.931 6.97238 512.018 6.97238 Z M 761.723 771.748 L 761.723 771.748 l -0.668337 0 c 0 0 0 0 -0.018063 0 c 0 0 0 0 -0.036126 0 L 263.036 771.748 c -0.018063 0 -0.054189 0 -0.054189 0 c -0.018063 0 -0.018063 0 -0.054189 0 l -0.487705 0 l 0 0 c -14.3963 -0.325137 -25.9567 -12.0662 -25.9567 -26.4986 c 0 -14.6492 11.8494 -26.4986 26.4986 -26.4986 c 0.3432 0 0.668337 0 1.01154 0.036126 l 25.2342 0 L 289.227 284.043 c 0 -0.072253 -0.018063 -0.162568 -0.018063 -0.270947 c 0 -17.3587 14.1073 -31.466 31.4841 -31.466 L 616.495 252.306 c 0.523831 -0.018063 1.0296 -0.036126 1.55343 -0.036126 c 17.3768 0 31.466 14.0893 31.466 31.466 c 0 0.28901 0 0.596084 -0.036126 0.885094 l 0 190.295 l 52.3289 0 c 0.3432 0 0.668337 -0.018063 1.04766 -0.018063 c 17.3045 0 31.3576 14.017 31.4479 31.3215 l 0.018063 0 l 0 212.549 l 25.7039 0 c 0.3432 -0.036126 0.668337 -0.036126 1.01154 -0.036126 c 14.6492 0 26.4986 11.8494 26.4986 26.4986 C 787.535 759.646 776.065 771.351 761.723 771.748 Z" fill="#d81e06" p-id="3380"></path></svg>