<?xml version="1.0" standalone="no"?><!DOCTYPE svg PUBLIC "-//W3C//DTD SVG 1.1//EN" "http://www.w3.org/Graphics/SVG/1.1/DTD/svg11.dtd"><svg t="1567502489677" class="icon" viewBox="0 0 1024 1024" version="1.1" xmlns="http://www.w3.org/2000/svg" p-id="2637" xmlns:xlink="http://www.w3.org/1999/xlink" width="200" height="200"><defs><style type="text/css"></style></defs><path d="M516.232382 625.423231c-24.542698 0-44.873485 19.629655-44.873485 44.174399 0 24.563169 20.330787 44.872461 44.873485 44.872461 24.544745 0 44.172352-20.330787 44.172352-44.872461C560.404734 645.052886 540.777127 625.423231 516.232382 625.423231z" fill="#fb3f54" p-id="2638"></path><path d="M624.890473 516.085502c0 24.541674 20.330787 44.876555 44.872461 44.876555 24.544745 0 44.174399-20.334881 44.174399-44.876555 0-24.544745-19.651149-44.173376-44.174399-44.173376C645.22126 471.912127 624.890473 491.540758 624.890473 516.085502z" fill="#fb3f54" p-id="2639"></path><path d="M516.232382 399.026108c24.544745 0 44.172352-19.628631 44.172352-44.173376 0-24.542698-19.649102-44.171329-44.172352-44.171329-24.542698 0-44.873485 19.628631-44.873485 44.171329C471.358897 379.397477 491.689684 399.026108 516.232382 399.026108z" fill="#fb3f54" p-id="2640"></path><path d="M354.276984 471.912127c-24.541674 0-44.170305 19.628631-44.170305 44.173376 0 24.541674 19.628631 44.876555 44.170305 44.876555 24.544745 0 44.876555-20.334881 44.876555-44.876555C399.15354 491.540758 378.820706 471.912127 354.276984 471.912127z" fill="#fb3f54" p-id="2641"></path><path d="M512.021495 245.475084c-147.216268 0-266.400554 119.886442-266.400554 267.100663 0 146.514112 119.184286 266.399531 266.400554 266.399531 147.218315 0 266.399531-119.885418 266.399531-266.399531C778.421025 365.361526 659.23981 245.475084 512.021495 245.475084zM516.232382 269.996288c46.980975 0 84.839044 37.853974 84.839044 84.836997 0 46.981999-37.877516 84.836997-84.839044 84.836997-46.980975 0-84.836997-37.854998-84.836997-84.836997C431.395385 307.850262 469.250383 269.996288 516.232382 269.996288zM560.362769 512.574724c0 27.327779-21.03499 48.364816-48.364816 48.364816-27.324708 0-48.359698-21.012472-48.359698-48.364816 0-27.349274 21.033966-49.063901 48.359698-49.063901C539.327779 463.510823 560.362769 485.247968 560.362769 512.574724zM354.276984 600.902028c-46.977905 0-84.83802-37.859092-84.83802-84.841091 0-46.976881 37.859092-84.835973 84.83802-84.835973 46.980975 0 84.840067 37.858068 84.840067 84.835973C439.117052 563.042936 401.258983 600.902028 354.276984 600.902028zM516.232382 754.457145c-46.980975 0-84.836997-37.859092-84.836997-84.839044 0-46.983022 37.854998-84.839044 84.836997-84.839044s84.839044 37.857045 84.839044 84.839044C601.070402 716.59703 563.21131 754.457145 516.232382 754.457145zM754.603001 516.061961c0 46.980975-37.879563 84.841091-84.841091 84.841091-46.975858 0-84.834949-37.859092-84.834949-84.841091 0-46.976881 37.859092-84.835973 84.834949-84.835973C716.743909 431.224964 754.603001 469.084056 754.603001 516.061961z" fill="#fb3f54" p-id="2642"></path><path d="M512 0.449339c-282.645327 0-511.775331 229.130004-511.775331 511.775331 0 282.64635 229.130004 511.775331 511.775331 511.775331 282.64635 0 511.775331-229.12898 511.775331-511.775331C1023.775331 229.579343 794.64635 0.449339 512 0.449339zM512.021495 818.93879c-56.083411 0-107.954912-14.715588-152.831467-40.664644-42.768041-9.805615-84.133817-6.317355-124.097329 10.507771-8.420751 3.506685-17.524211 1.401241-22.43623-7.72269-9.123931-18.929546 4.209864-25.242806 15.417744-30.836511 21.737145-11.206856 49.062877-14.719682 74.310802-14.719682C242.79287 679.423717 204.934802 600.200896 204.934802 512.574724c0-169.653522 137.410653-307.064175 307.063151-307.064175C681.651475 205.511572 819.065198 342.922225 819.065198 512.574724 819.085669 681.527114 681.673993 818.93879 512.021495 818.93879z" fill="#fb3f54" p-id="2643"></path></svg>