<?xml version="1.0" standalone="no"?><!DOCTYPE svg PUBLIC "-//W3C//DTD SVG 1.1//EN" "http://www.w3.org/Graphics/SVG/1.1/DTD/svg11.dtd"><svg t="1567502679676" class="icon" viewBox="0 0 1024 1024" version="1.1" xmlns="http://www.w3.org/2000/svg" p-id="13170" xmlns:xlink="http://www.w3.org/1999/xlink" width="200" height="200"><defs><style type="text/css"></style></defs><path d="M512 0C229.229513 0 0 229.229513 0 512c0 282.771913 229.229513 512 512 512 282.770487 0 512-229.228087 512-512C1024 229.229513 794.770487 0 512 0L512 0zM194.585437 261.556569c0-8.127392 6.577484-14.704875 14.709153-14.704875l250.015673 0c8.125966 0 14.703449 6.577484 14.703449 14.704875l0 132.359561c0 8.131669-6.577484 14.709153-14.703449 14.709153L209.29459 408.625283c-8.131669 0-14.709153-6.577484-14.709153-14.709153L194.585437 261.556569 194.585437 261.556569zM731.381111 776.291365c-61.495837 0-112.508764-44.435444-122.936065-102.946959L413.119588 673.344406c-10.425875 58.511515-61.438802 102.946959-122.940342 102.946959-66.547652 0-120.808684-52.050952-124.634262-117.657538l-0.373575 0 0-44.116051 0-29.414028 73.537209-102.946959-44.123181 0 0-44.118903 279.428275 0 0 44.118903-11.027587 18.379312-8.572259 14.308487L429.896235 555.68972l111.117126 0 65.361338-117.650409 0-88.242084-44.117477 0 0-44.117477 117.650409 0 0 0.745724c2.428236-0.345058 4.840788-0.745724 7.351725-0.745724 28.423057 0 51.476331 23.047571 51.476331 51.470628 0 2.355518-0.384982 4.628336-0.690115 6.89545l0.690115 0.456275-0.990971 2.472438c-1.219109 6.322255-3.658752 12.154015-6.962465 17.405451l-21.460591 53.65932 0 73.527228 29.414028 14.71343-0.517587 0.345058c65.840426 3.553239 118.173698 57.931191 118.173698 124.664205C856.388947 720.326432 800.418311 776.291365 731.381111 776.291365L731.381111 776.291365zM731.381111 585.105174c-36.549022 0-66.179781 29.629333-66.179781 66.178355 0 36.550448 29.630758 66.179781 66.179781 66.179781 36.554726 0 66.179781-29.629333 66.179781-66.179781C797.560891 614.734506 767.935836 585.105174 731.381111 585.105174L731.381111 585.105174zM731.381111 673.344406c-12.181106 0-22.062303-9.8869-22.062303-22.062303 0-12.181106 9.881197-22.062303 22.062303-22.062303 12.175403 0 22.062303 9.881197 22.062303 22.062303C753.443414 663.458931 743.562217 673.344406 731.381111 673.344406L731.381111 673.344406zM253.413493 290.970597l161.779293 0 0 29.414028L253.413493 320.384625 253.413493 290.970597 253.413493 290.970597zM290.179246 585.105174c-36.549022 0-66.179781 29.629333-66.179781 66.178355 0 36.550448 29.630758 66.179781 66.179781 66.179781 36.5533 0 66.185484-29.629333 66.185484-66.179781C356.36473 614.734506 326.732546 585.105174 290.179246 585.105174L290.179246 585.105174zM290.179246 673.344406c-12.175403 0-22.0566-9.8869-22.0566-22.062303 0-12.181106 9.881197-22.062303 22.0566-22.062303 12.181106 0 22.060877 9.881197 22.060877 22.062303C312.240123 663.458931 302.360352 673.344406 290.179246 673.344406L290.179246 673.344406zM290.179246 673.344406" fill="#3cbacb" p-id="13171"></path></svg>