<?xml version="1.0" standalone="no"?><!DOCTYPE svg PUBLIC "-//W3C//DTD SVG 1.1//EN" "http://www.w3.org/Graphics/SVG/1.1/DTD/svg11.dtd"><svg t="1567502943088" class="icon" viewBox="0 0 1024 1024" version="1.1" xmlns="http://www.w3.org/2000/svg" p-id="4366" xmlns:xlink="http://www.w3.org/1999/xlink" width="200" height="200"><defs><style type="text/css"></style></defs><path d="M512 512m-509.129401 0a509.129401 509.129401 0 1 0 1018.258802 0 509.129401 509.129401 0 1 0-1018.258802 0Z" fill="#15B3FF" p-id="4367"></path><path d="M512 1024a512 512 0 1 1 512-512 512.631532 512.631532 0 0 1-512 512zM512 5.741198a506.258802 506.258802 0 1 0 506.258802 506.258802A506.832922 506.832922 0 0 0 512 5.741198z" fill="#58ABF0" p-id="4368"></path><path d="M683.202512 802.332362H340.8549a26.524333 26.524333 0 1 1 0-52.991254h146.343126V524.688047H462.740525a26.524333 26.524333 0 1 1 0-52.991254h105.121327a26.524333 26.524333 0 1 1 0 52.991254H540.246692v224.595649H683.202512a26.524333 26.524333 0 1 1 0 53.048666z m-342.175376-30.026464a3.559542 3.559542 0 0 0-3.559542 3.559543 3.502131 3.502131 0 0 0 3.559542 3.50213H683.202512a3.502131 3.502131 0 0 0 3.559542-3.50213 3.616954 3.616954 0 0 0-3.559542-3.616955H517.281902V501.723256h50.57995a3.559542 3.559542 0 1 0 0-7.061673H462.740525a3.559542 3.559542 0 1 0 0 7.061673h47.422292v270.582642z m339.477013-51.670778l-35.308365-39.556851 8.611796-7.635793a213.342902 213.342902 0 1 0-286.370935-2.870599l8.382148 7.750617-36.112132 39.327203-8.439561-7.86544a266.276744 266.276744 0 0 1 154.208567-460.84593v-13.204754a26.524333 26.524333 0 0 1 52.991254 0v13.147342A266.219332 266.219332 0 0 1 688.943709 712.827091z m-3.042835-37.891904l4.707782 5.281902A243.197129 243.197129 0 0 0 526.352994 270.984526l-10.850863-0.631532v-34.447186a3.502131 3.502131 0 0 0-3.502131-3.50213 3.502131 3.502131 0 0 0-3.559542 3.50213v34.447186l-10.793452 0.631532a243.254541 243.254541 0 0 0-159.031173 413.366225l4.822606-5.22449a236.307692 236.307692 0 1 1 333.850639 3.157659z" fill="#FFFFFF" p-id="4369"></path></svg>